<?xml version="1.0" encoding="UTF-8" standalone="no"?>
<!-- Created with Inkscape (http://www.inkscape.org/) -->

<svg
   width="60mm"
   height="60mm"
   viewBox="0 0 60 60"
   version="1.1"
   id="svg1"
   xml:space="preserve"
   inkscape:version="1.3 (0e150ed6c4, 2023-07-21)"
   sodipodi:docname="icon.svg"
   inkscape:export-filename="../src/assets/apple-touch-icon.png"
   inkscape:export-xdpi="216.75"
   inkscape:export-ydpi="216.75"
   xmlns:inkscape="http://www.inkscape.org/namespaces/inkscape"
   xmlns:sodipodi="http://sodipodi.sourceforge.net/DTD/sodipodi-0.dtd"
   xmlns="http://www.w3.org/2000/svg"
   xmlns:svg="http://www.w3.org/2000/svg"><sodipodi:namedview
     id="namedview1"
     pagecolor="#ffffff"
     bordercolor="#000000"
     borderopacity="0.25"
     inkscape:showpageshadow="2"
     inkscape:pageopacity="0.0"
     inkscape:pagecheckerboard="0"
     inkscape:deskcolor="#d1d1d1"
     inkscape:document-units="mm"
     showgrid="false"
     inkscape:zoom="1"
     inkscape:cx="9.5"
     inkscape:cy="90.5"
     inkscape:window-width="1280"
     inkscape:window-height="1011"
     inkscape:window-x="20"
     inkscape:window-y="20"
     inkscape:window-maximized="0"
     inkscape:current-layer="layer1"
     showguides="false"><inkscape:grid
       type="axonomgrid"
       id="grid1"
       units="cm"
       originx="0"
       originy="0"
       spacingx="0"
       spacingy="1"
       empcolor="#0099e5"
       empopacity="0.30196078"
       color="#0099e5"
       opacity="0.14901961"
       empspacing="5"
       dotted="false"
       gridanglex="30"
       gridanglez="30"
       visible="false" /></sodipodi:namedview><defs
     id="defs1" /><g
     inkscape:label="Layer 1"
     inkscape:groupmode="layer"
     id="layer1"><g
       id="g18"
       transform="translate(-25.683187,-21.248315)"><rect
         style="fill:#FE7A2B;fill-opacity:1;stroke:#000000;stroke-width:0.307622;stroke-linejoin:round;stroke-dasharray:none;stroke-opacity:1"
         id="rect1"
         width="4.486012"
         height="5.0364509"
         x="42.179832"
         y="56.255264"
         transform="matrix(0.95105652,0.30901699,0,1,0,0)" /><rect
         style="fill:#FE7A2B;fill-opacity:1;stroke:#000000;stroke-width:0.307622;stroke-linejoin:round;stroke-dasharray:none;stroke-opacity:1"
         id="rect1-3"
         width="4.486012"
         height="5.0364509"
         x="37.693817"
         y="56.255264"
         transform="matrix(0.95105652,0.30901699,0,1,0,0)" /><rect
         style="fill:#FE7A2B;fill-opacity:1;stroke:#000000;stroke-width:0.307622;stroke-linejoin:round;stroke-dasharray:none;stroke-opacity:1"
         id="rect1-3-2"
         width="4.486012"
         height="5.0364509"
         x="33.207802"
         y="56.255264"
         transform="matrix(0.95105652,0.30901699,0,1,0,0)" /><rect
         style="fill:#FE7A2B;fill-opacity:1;stroke:#000000;stroke-width:0.307622;stroke-linejoin:round;stroke-dasharray:none;stroke-opacity:1"
         id="rect1-3-2-7"
         width="4.486012"
         height="5.0364509"
         x="33.207802"
         y="51.218811"
         transform="matrix(0.95105652,0.30901699,0,1,0,0)" /><rect
         style="fill:#FE7A2B;fill-opacity:1;stroke:#000000;stroke-width:0.307622;stroke-linejoin:round;stroke-dasharray:none;stroke-opacity:1"
         id="rect1-3-2-7-2"
         width="4.486012"
         height="5.0364509"
         x="28.721786"
         y="51.218811"
         transform="matrix(0.95105652,0.30901699,0,1,0,0)" /><path
         style="fill:#FC0300;fill-opacity:1;stroke:#000000;stroke-width:0.3;stroke-linecap:butt;stroke-linejoin:round;stroke-dasharray:none;stroke-opacity:1;paint-order:normal"
         d="m 40.115401,69.289544 4.266457,1.38626 3.878404,-1.00629 -4.268852,-1.40287 z"
         id="path17-9-8" /><rect
         style="fill:#FE7A2B;fill-opacity:1;stroke:#000000;stroke-width:0.307622;stroke-linejoin:round;stroke-dasharray:none;stroke-opacity:1"
         id="rect1-3-2-7-2-9"
         width="4.486012"
         height="5.0364509"
         x="46.665848"
         y="51.218811"
         transform="matrix(0.95105652,0.30901699,0,1,0,0)" /><rect
         style="fill:#FC0300;fill-opacity:1;stroke:#000000;stroke-width:0.302532;stroke-linejoin:round;stroke-dasharray:none;stroke-opacity:1"
         id="rect1-3-2-7-2-9-9-1-5-8-0-9-3-3-9-9-0-5-8"
         width="4.006824"
         height="5.0591755"
         x="50.259129"
         y="84.684319"
         transform="matrix(0.96794983,-0.25114364,0,1,0,0)" /><rect
         style="fill:#FE7A2B;fill-opacity:1;stroke:#000000;stroke-width:0.307622;stroke-linejoin:round;stroke-dasharray:none;stroke-opacity:1"
         id="rect1-3-2-7-2-9-9"
         width="4.486012"
         height="5.0364509"
         x="51.151863"
         y="51.218811"
         transform="matrix(0.95105652,0.30901699,0,1,0,0)" /><rect
         style="fill:#FE7A2B;fill-opacity:1;stroke:#000000;stroke-width:0.307622;stroke-linejoin:round;stroke-dasharray:none;stroke-opacity:1"
         id="rect1-3-2-7-2-9-9-1"
         width="4.486012"
         height="5.0364509"
         x="51.151863"
         y="46.182358"
         transform="matrix(0.95105652,0.30901699,0,1,0,0)" /><rect
         style="fill:#FC0300;fill-opacity:1;stroke:#000000;stroke-width:0.305092;stroke-linejoin:round;stroke-dasharray:none;stroke-opacity:1"
         id="rect1-3-2-7-2-9-9-1-5-8-0"
         width="4.0087109"
         height="5.1427293"
         x="50.313908"
         y="69.791359"
         transform="matrix(0.9668959,-0.25517117,0,1,0,0)" /><rect
         style="fill:#FC0300;fill-opacity:1;stroke:#000000;stroke-width:0.305092;stroke-linejoin:round;stroke-dasharray:none;stroke-opacity:1"
         id="rect1-3-2-7-2-9-9-1-5-8-0-9"
         width="4.0087109"
         height="5.1427293"
         x="45.901379"
         y="62.24271"
         transform="matrix(0.9668959,-0.25517117,0,1,0,0)" /><rect
         style="fill:#FC0300;fill-opacity:1;stroke:#000000;stroke-width:0.305092;stroke-linejoin:round;stroke-dasharray:none;stroke-opacity:1"
         id="rect1-3-2-7-2-9-9-1-5-8-0-9-3"
         width="4.0087109"
         height="5.1427293"
         x="41.488857"
         y="54.694054"
         transform="matrix(0.9668959,-0.25517117,0,1,0,0)" /><rect
         style="fill:#FC0300;fill-opacity:1;stroke:#000000;stroke-width:0.305092;stroke-linejoin:round;stroke-dasharray:none;stroke-opacity:1"
         id="rect1-3-2-7-2-9-9-1-5-8-0-9-3-3"
         width="4.0087109"
         height="5.1427293"
         x="37.076328"
         y="47.145401"
         transform="matrix(0.9668959,-0.25517117,0,1,0,0)" /><rect
         style="fill:#FC0300;fill-opacity:1;stroke:#000000;stroke-width:0.305092;stroke-linejoin:round;stroke-dasharray:none;stroke-opacity:1"
         id="rect1-3-2-7-2-9-9-1-5-8-0-9-3-3-9"
         width="4.0087109"
         height="5.1427293"
         x="37.076328"
         y="42.00267"
         transform="matrix(0.9668959,-0.25517117,0,1,0,0)" /><rect
         style="fill:#FC0300;fill-opacity:1;stroke:#000000;stroke-width:0.305092;stroke-linejoin:round;stroke-dasharray:none;stroke-opacity:1"
         id="rect1-3-2-7-2-9-9-1-5-8-0-9-3-3-9-9"
         width="4.0087109"
         height="5.1427293"
         x="50.313908"
         y="44.609116"
         transform="matrix(0.9668959,-0.25517117,0,1,0,0)" /><rect
         style="fill:#FC0300;fill-opacity:1;stroke:#000000;stroke-width:0.302532;stroke-linejoin:round;stroke-dasharray:none;stroke-opacity:1"
         id="rect1-3-2-7-2-9-9-1-5-8-0-9-3-3-9-9-0"
         width="4.006824"
         height="5.0591755"
         x="54.666851"
         y="51.922398"
         transform="matrix(0.96794983,-0.25114364,0,1,0,0)" /><rect
         style="fill:#FC0300;fill-opacity:1;stroke:#000000;stroke-width:0.302532;stroke-linejoin:round;stroke-dasharray:none;stroke-opacity:1"
         id="rect1-3-2-7-2-9-9-1-5-8-0-9-3-3-9-9-0-5"
         width="4.006824"
         height="5.0591755"
         x="54.666851"
         y="77.10463"
         transform="matrix(0.96794983,-0.25114364,0,1,0,0)" /><rect
         style="fill:#FC0300;fill-opacity:1;stroke:#000000;stroke-width:0.302532;stroke-linejoin:round;stroke-dasharray:none;stroke-opacity:1"
         id="rect1-3-2-7-2-9-9-1-5-8-0-9-3-3-9-9-0-5-0"
         width="4.006824"
         height="5.0591755"
         x="54.666851"
         y="82.14109"
         transform="matrix(0.96794983,-0.25114364,0,1,0,0)" /><rect
         style="fill:#FC0300;fill-opacity:1;stroke:#000000;stroke-width:0.302532;stroke-linejoin:round;stroke-dasharray:none;stroke-opacity:1"
         id="rect1-3-2-7-2-9-9-1-5-8-0-9-3-3-9-9-0-5-0-0"
         width="4.006824"
         height="5.0591755"
         x="37.034725"
         y="72.136833"
         transform="matrix(0.96794983,-0.25114364,0,1,0,0)" /><path
         style="fill:#FC0300;fill-opacity:1;stroke:#000000;stroke-width:0.3;stroke-linecap:butt;stroke-linejoin:round;stroke-dasharray:none;stroke-opacity:1;paint-order:normal"
         d="m 35.848949,67.903294 4.266457,1.38626 3.878404,-1.00629 -4.268852,-1.40288 z"
         id="path17-9-83" /><rect
         style="fill:#FE7A2B;fill-opacity:1;stroke:#000000;stroke-width:0.307622;stroke-linejoin:round;stroke-dasharray:none;stroke-opacity:1"
         id="rect1-3-2-7-2-9-9-1-1"
         width="4.486012"
         height="5.0364509"
         x="46.665848"
         y="46.182358"
         transform="matrix(0.95105652,0.30901699,0,1,0,0)" /><rect
         style="fill:#FE7A2B;fill-opacity:1;stroke:#000000;stroke-width:0.307622;stroke-linejoin:round;stroke-dasharray:none;stroke-opacity:1"
         id="rect1-3-2-7-2-9-9-1-1-8"
         width="4.486012"
         height="5.0364509"
         x="46.665848"
         y="41.145908"
         transform="matrix(0.95105652,0.30901699,0,1,0,0)" /><rect
         style="fill:#FE7A2B;fill-opacity:1;stroke:#000000;stroke-width:0.307622;stroke-linejoin:round;stroke-dasharray:none;stroke-opacity:1"
         id="rect1-3-2-7-2-9-9-1-1-8-3"
         width="4.486012"
         height="5.0364509"
         x="42.179832"
         y="41.145908"
         transform="matrix(0.95105652,0.30901699,0,1,0,0)" /><rect
         style="fill:#FE7A2B;fill-opacity:1;stroke:#000000;stroke-width:0.307622;stroke-linejoin:round;stroke-dasharray:none;stroke-opacity:1"
         id="rect1-3-2-7-2-9-9-1-1-8-3-6"
         width="4.486012"
         height="5.0364509"
         x="42.179832"
         y="36.109459"
         transform="matrix(0.95105652,0.30901699,0,1,0,0)" /><rect
         style="fill:#FE7A2B;fill-opacity:1;stroke:#000000;stroke-width:0.307622;stroke-linejoin:round;stroke-dasharray:none;stroke-opacity:1"
         id="rect1-3-2-7-2-9-9-1-1-8-3-6-6"
         width="4.486012"
         height="5.0364509"
         x="37.693817"
         y="36.109459"
         transform="matrix(0.95105652,0.30901699,0,1,0,0)" /><rect
         style="fill:#FE7A2B;fill-opacity:1;stroke:#000000;stroke-width:0.307622;stroke-linejoin:round;stroke-dasharray:none;stroke-opacity:1"
         id="rect1-3-2-7-2-9-9-1-1-8-3-6-6-4"
         width="4.486012"
         height="5.0364509"
         x="37.693817"
         y="31.073009"
         transform="matrix(0.95105652,0.30901699,0,1,0,0)" /><rect
         style="fill:#FE7A2B;fill-opacity:1;stroke:#000000;stroke-width:0.307622;stroke-linejoin:round;stroke-dasharray:none;stroke-opacity:1"
         id="rect1-3-2-7-2-9-9-1-1-8-3-6-6-4-6"
         width="4.486012"
         height="5.0364509"
         x="33.207802"
         y="31.073009"
         transform="matrix(0.95105652,0.30901699,0,1,0,0)" /><rect
         style="fill:#FE7A2B;fill-opacity:1;stroke:#000000;stroke-width:0.307622;stroke-linejoin:round;stroke-dasharray:none;stroke-opacity:1"
         id="rect1-3-2-7-2-9-9-1-1-8-3-6-6-4-6-4"
         width="4.486012"
         height="5.0364509"
         x="33.207802"
         y="26.03656"
         transform="matrix(0.95105652,0.30901699,0,1,0,0)" /><rect
         style="fill:#FE7A2B;fill-opacity:1;stroke:#000000;stroke-width:0.307622;stroke-linejoin:round;stroke-dasharray:none;stroke-opacity:1"
         id="rect1-3-2-7-2-9-9-1-1-8-3-6-6-4-6-4-4"
         width="4.486012"
         height="5.0364509"
         x="28.721786"
         y="26.03656"
         transform="matrix(0.95105652,0.30901699,0,1,0,0)" /><rect
         style="fill:#FE7A2B;fill-opacity:1;stroke:#000000;stroke-width:0.307622;stroke-linejoin:round;stroke-dasharray:none;stroke-opacity:1"
         id="rect1-3-2-7-2-9-9-1-1-8-3-6-6-4-6-4-4-3"
         width="4.486012"
         height="5.0364509"
         x="33.207802"
         y="21.000114"
         transform="matrix(0.95105652,0.30901699,0,1,0,0)" /><rect
         style="fill:#FE7A2B;fill-opacity:1;stroke:#000000;stroke-width:0.307622;stroke-linejoin:round;stroke-dasharray:none;stroke-opacity:1"
         id="rect1-3-2-7-2-9-9-1-1-8-3-6-6-4-6-4-4-3-6"
         width="4.486012"
         height="5.0364509"
         x="28.721786"
         y="21.000114"
         transform="matrix(0.95105652,0.30901699,0,1,0,0)" /><path
         style="fill:#FC0300;fill-opacity:1;stroke:#000000;stroke-width:0.3;stroke-linecap:butt;stroke-linejoin:round;stroke-dasharray:none;stroke-opacity:1;paint-order:normal"
         d="m 27.316038,29.875633 4.266457,1.386255 3.878404,-1.006287 -4.268852,-1.402876 z"
         id="path17-9-94" /><rect
         style="fill:#FE7A2B;fill-opacity:1;stroke:#000000;stroke-width:0.307622;stroke-linejoin:round;stroke-dasharray:none;stroke-opacity:1"
         id="rect1-3-2-7-2-9-9-1-1-8-3-6-6-4-6-4-4-3-6-3"
         width="4.486012"
         height="5.0364509"
         x="33.207802"
         y="15.963664"
         transform="matrix(0.95105652,0.30901699,0,1,0,0)" /><rect
         style="fill:#FE7A2B;fill-opacity:1;stroke:#000000;stroke-width:0.307622;stroke-linejoin:round;stroke-dasharray:none;stroke-opacity:1"
         id="rect1-3-2-7-2-9-9-1-1-8-3-6-6-4-6-4-4-3-6-3-2"
         width="4.486012"
         height="5.0364509"
         x="37.693817"
         y="15.963664"
         transform="matrix(0.95105652,0.30901699,0,1,0,0)" /><rect
         style="fill:#FE7A2B;fill-opacity:1;stroke:#000000;stroke-width:0.307622;stroke-linejoin:round;stroke-dasharray:none;stroke-opacity:1"
         id="rect1-3-2-7-2-9-9-1-1-8-3-6-6-4-6-4-4-3-6-3-2-9"
         width="4.486012"
         height="5.0364509"
         x="42.179832"
         y="15.963664"
         transform="matrix(0.95105652,0.30901699,0,1,0,0)" /><rect
         style="fill:#FE7A2B;fill-opacity:1;stroke:#000000;stroke-width:0.307622;stroke-linejoin:round;stroke-dasharray:none;stroke-opacity:1"
         id="rect1-3-2-7-2-9-9-1-1-8-3-6-6-4-6-4-4-3-6-3-2-9-4"
         width="4.486012"
         height="5.0364509"
         x="46.665848"
         y="15.963664"
         transform="matrix(0.95105652,0.30901699,0,1,0,0)" /><rect
         style="fill:#FE7A2B;fill-opacity:1;stroke:#000000;stroke-width:0.307622;stroke-linejoin:round;stroke-dasharray:none;stroke-opacity:1"
         id="rect1-3-2-7-2-9-9-1-1-8-3-6-6-4-6-4-4-3-6-3-2-9-4-4"
         width="4.486012"
         height="5.0364509"
         x="46.665848"
         y="21.000114"
         transform="matrix(0.95105652,0.30901699,0,1,0,0)" /><rect
         style="fill:#FE7A2B;fill-opacity:1;stroke:#000000;stroke-width:0.307622;stroke-linejoin:round;stroke-dasharray:none;stroke-opacity:1"
         id="rect1-3-2-7-2-9-9-1-1-8-3-6-6-4-6-4-4-3-6-3-2-9-4-4-7"
         width="4.486012"
         height="5.0364509"
         x="51.151863"
         y="21.000114"
         transform="matrix(0.95105652,0.30901699,0,1,0,0)" /><rect
         style="fill:#FE7A2B;fill-opacity:1;stroke:#000000;stroke-width:0.307622;stroke-linejoin:round;stroke-dasharray:none;stroke-opacity:1"
         id="rect1-2"
         width="4.486012"
         height="5.0364509"
         x="46.665848"
         y="56.255264"
         transform="matrix(0.95105652,0.30901699,0,1,0,0)" /><path
         style="fill:#FC0300;fill-opacity:1;stroke:#000000;stroke-width:0.3;stroke-linecap:butt;stroke-linejoin:round;stroke-dasharray:none;stroke-opacity:1;paint-order:normal"
         d="m 48.648309,36.806908 4.266457,1.386255 3.878402,-1.006287 -4.26885,-1.402876 z"
         id="path17" /><path
         style="fill:#FC0300;fill-opacity:1;stroke:#000000;stroke-width:0.3;stroke-linecap:butt;stroke-linejoin:round;stroke-dasharray:none;stroke-opacity:1;paint-order:normal"
         d="m 44.381854,30.384201 4.266457,1.386255 3.878404,-1.006287 -4.268852,-1.402876 z"
         id="path17-9" /><path
         style="fill:#FC0300;fill-opacity:1;stroke:#000000;stroke-width:0.3;stroke-linecap:butt;stroke-linejoin:round;stroke-dasharray:none;stroke-opacity:1;paint-order:normal"
         d="m 40.115397,28.997946 4.266457,1.386255 3.878404,-1.006287 -4.268852,-1.402876 z"
         id="path17-9-2" /><path
         style="fill:#FC0300;fill-opacity:1;stroke:#000000;stroke-width:0.3;stroke-linecap:butt;stroke-linejoin:round;stroke-dasharray:none;stroke-opacity:1;paint-order:normal"
         d="m 35.848947,27.611694 4.266457,1.386255 3.878404,-1.006287 -4.268852,-1.402876 z"
         id="path17-9-9" /><path
         style="fill:#FC0300;fill-opacity:1;stroke:#000000;stroke-width:0.3;stroke-linecap:butt;stroke-linejoin:round;stroke-dasharray:none;stroke-opacity:1;paint-order:normal"
         d="m 31.582492,26.225439 4.266457,1.386255 3.878404,-1.006287 -4.268852,-1.402876 z"
         id="path17-9-0" /><path
         style="fill:#FC0300;fill-opacity:1;stroke:#000000;stroke-width:0.3;stroke-linecap:butt;stroke-linejoin:round;stroke-dasharray:none;stroke-opacity:1;paint-order:normal"
         d="m 35.848947,42.721038 4.266457,1.386255 3.878404,-1.006287 -4.268852,-1.402876 z"
         id="path17-9-7" /><path
         style="fill:#FC0300;fill-opacity:1;stroke:#000000;stroke-width:0.3;stroke-linecap:butt;stroke-linejoin:round;stroke-dasharray:none;stroke-opacity:1;paint-order:normal"
         d="m 40.115398,49.143742 4.266457,1.386255 3.878404,-1.006287 -4.268852,-1.402876 z"
         id="path17-9-4" /><path
         style="fill:#FC0300;fill-opacity:1;stroke:#000000;stroke-width:0.3;stroke-linecap:butt;stroke-linejoin:round;stroke-dasharray:none;stroke-opacity:1;paint-order:normal"
         d="m 44.381854,55.566444 4.266457,1.386255 3.878404,-1.006287 -4.268852,-1.402876 z"
         id="path17-9-22" /><path
         style="fill:#FC0300;fill-opacity:1;stroke:#000000;stroke-width:0.3;stroke-linecap:butt;stroke-linejoin:round;stroke-dasharray:none;stroke-opacity:1;paint-order:normal"
         d="m 48.648309,61.989151 4.266457,1.386255 3.878405,-1.006287 -4.268853,-1.402876 z"
         id="path17-9-28" /><path
         style="fill:#FC0300;fill-opacity:1;stroke:#000000;stroke-width:0.3;stroke-linecap:butt;stroke-linejoin:round;stroke-dasharray:none;stroke-opacity:1;paint-order:normal"
         d="m 31.582492,61.480585 4.266457,1.386255 3.878404,-1.006287 -4.268852,-1.402876 z"
         id="path17-9-3" /><path
         style="fill:#FC0300;fill-opacity:1;stroke:#000000;stroke-width:0.3;stroke-linecap:butt;stroke-linejoin:round;stroke-dasharray:none;stroke-opacity:1;paint-order:normal"
         d="m 27.314838,60.086019 4.266457,1.386255 3.878404,-1.006287 -4.268852,-1.402876 z"
         id="path17-9-76" /></g><g
       id="g17"
       transform="translate(-77.683218,-53.969757)"><path
         style="fill:#FC0300;fill-opacity:1;stroke:#000000;stroke-width:0.3;stroke-linecap:butt;stroke-linejoin:round;stroke-dasharray:none;stroke-opacity:1;paint-order:normal"
         d="m 116.97109,103.08992 4.26646,1.38625 3.8784,-1.00628 -4.26885,-1.40288 z"
         id="path17-97-8" /><path
         style="fill:#FC0300;fill-opacity:1;stroke:#000000;stroke-width:0.3;stroke-linecap:butt;stroke-linejoin:round;stroke-dasharray:none;stroke-opacity:1;paint-order:normal"
         d="m 120.79913,102.04084 4.26646,1.38626 3.8784,-1.00629 -4.26885,-1.40288 z"
         id="path17-97-9" /><rect
         style="fill:#FC0300;fill-opacity:1;stroke:#000000;stroke-width:0.301722;stroke-linejoin:round;stroke-dasharray:none;stroke-opacity:1"
         id="rect1-3-2-7-2-9-9-1-5-8-0-6"
         width="4.0033689"
         height="5.0364466"
         x="121.1684"
         y="135.75075"
         transform="matrix(0.96818613,-0.25023113,0,1,0,0)" /><rect
         style="fill:#FC0300;fill-opacity:1;stroke:#000000;stroke-width:0.301722;stroke-linejoin:round;stroke-dasharray:none;stroke-opacity:1"
         id="rect1-3-2-7-2-9-9-1-5-8-0-6-0"
         width="4.0033689"
         height="5.0364466"
         x="125.17178"
         y="135.75075"
         transform="matrix(0.96818613,-0.25023113,0,1,0,0)" /><rect
         style="fill:#FC0300;fill-opacity:1;stroke:#000000;stroke-width:0.301722;stroke-linejoin:round;stroke-dasharray:none;stroke-opacity:1"
         id="rect1-3-2-7-2-9-9-1-5-8-0-6-0-9"
         width="4.0033689"
         height="5.0364466"
         x="129.17514"
         y="135.75075"
         transform="matrix(0.96818613,-0.25023113,0,1,0,0)" /><rect
         style="fill:#FC0300;fill-opacity:1;stroke:#000000;stroke-width:0.301722;stroke-linejoin:round;stroke-dasharray:none;stroke-opacity:1"
         id="rect1-3-2-7-2-9-9-1-5-8-0-6-0-9-3"
         width="4.0033689"
         height="5.0364466"
         x="133.17851"
         y="135.75075"
         transform="matrix(0.96818613,-0.25023113,0,1,0,0)" /><rect
         style="fill:#FC0300;fill-opacity:1;stroke:#000000;stroke-width:0.301722;stroke-linejoin:round;stroke-dasharray:none;stroke-opacity:1"
         id="rect1-3-2-7-2-9-9-1-5-8-0-6-0-9-3-7"
         width="4.0033689"
         height="5.0364466"
         x="137.18188"
         y="135.75075"
         transform="matrix(0.96818613,-0.25023113,0,1,0,0)" /><rect
         style="fill:#FC0300;fill-opacity:1;stroke:#000000;stroke-width:0.301722;stroke-linejoin:round;stroke-dasharray:none;stroke-opacity:1"
         id="rect1-3-2-7-2-9-9-1-5-8-0-6-7"
         width="4.0033689"
         height="5.0364466"
         x="121.1684"
         y="130.71429"
         transform="matrix(0.96818613,-0.25023113,0,1,0,0)" /><rect
         style="fill:#FC0300;fill-opacity:1;stroke:#000000;stroke-width:0.301722;stroke-linejoin:round;stroke-dasharray:none;stroke-opacity:1"
         id="rect1-3-2-7-2-9-9-1-5-8-0-6-7-1"
         width="4.0033689"
         height="5.0364466"
         x="121.1684"
         y="125.67784"
         transform="matrix(0.96818613,-0.25023113,0,1,0,0)" /><rect
         style="fill:#FC0300;fill-opacity:1;stroke:#000000;stroke-width:0.301722;stroke-linejoin:round;stroke-dasharray:none;stroke-opacity:1"
         id="rect1-3-2-7-2-9-9-1-5-8-0-6-7-1-2"
         width="4.0033689"
         height="5.0364466"
         x="121.1684"
         y="120.64137"
         transform="matrix(0.96818613,-0.25023113,0,1,0,0)" /><rect
         style="fill:#FC0300;fill-opacity:1;stroke:#000000;stroke-width:0.301722;stroke-linejoin:round;stroke-dasharray:none;stroke-opacity:1"
         id="rect1-3-2-7-2-9-9-1-5-8-0-6-7-1-20"
         width="4.0033689"
         height="5.0364466"
         x="121.1684"
         y="115.60493"
         transform="matrix(0.96818613,-0.25023113,0,1,0,0)" /><rect
         style="fill:#FE7A2B;fill-opacity:1;stroke:#000000;stroke-width:0.307622;stroke-linejoin:round;stroke-dasharray:none;stroke-opacity:1"
         id="rect1-3-2-7-2-9-9-1-1-8-7-5-8"
         width="4.486012"
         height="5.0364509"
         x="118.86476"
         y="62.276695"
         transform="matrix(0.95105652,0.30901699,0,1,0,0)" /><rect
         style="fill:#FE7A2B;fill-opacity:1;stroke:#000000;stroke-width:0.307622;stroke-linejoin:round;stroke-dasharray:none;stroke-opacity:1"
         id="rect1-3-2-7-2-9-9-1-1-8-7-5-8-0"
         width="4.486012"
         height="5.0364509"
         x="118.86476"
         y="57.240242"
         transform="matrix(0.95105652,0.30901699,0,1,0,0)" /><rect
         style="fill:#FE7A2B;fill-opacity:1;stroke:#000000;stroke-width:0.307622;stroke-linejoin:round;stroke-dasharray:none;stroke-opacity:1"
         id="rect1-3-2-7-2-9-9-1-1-8-7-5-8-4"
         width="4.486012"
         height="5.0364509"
         x="118.86476"
         y="52.203789"
         transform="matrix(0.95105652,0.30901699,0,1,0,0)" /><rect
         style="fill:#FE7A2B;fill-opacity:1;stroke:#000000;stroke-width:0.307622;stroke-linejoin:round;stroke-dasharray:none;stroke-opacity:1"
         id="rect1-3-2-7-2-9-9-1-1-8-7-5-8-4-8"
         width="4.486012"
         height="5.0364509"
         x="118.86476"
         y="47.167339"
         transform="matrix(0.95105652,0.30901699,0,1,0,0)" /><rect
         style="fill:#FE7A2B;fill-opacity:1;stroke:#000000;stroke-width:0.307622;stroke-linejoin:round;stroke-dasharray:none;stroke-opacity:1"
         id="rect1-3-2-7-2-9-9-1-1-8-7-5-8-4-8-7"
         width="4.486012"
         height="5.0364509"
         x="118.86476"
         y="42.13089"
         transform="matrix(0.95105652,0.30901699,0,1,0,0)" /><rect
         style="fill:#FE7A2B;fill-opacity:1;stroke:#000000;stroke-width:0.307622;stroke-linejoin:round;stroke-dasharray:none;stroke-opacity:1"
         id="rect1-3-2-7-2-9-9-1-1-8-7-5-8-4-8-7-2"
         width="4.486012"
         height="5.0364509"
         x="118.86476"
         y="37.09444"
         transform="matrix(0.95105652,0.30901699,0,1,0,0)" /><rect
         style="fill:#FE7A2B;fill-opacity:1;stroke:#000000;stroke-width:0.307622;stroke-linejoin:round;stroke-dasharray:none;stroke-opacity:1"
         id="rect1-3-2-7-2-9-9-1-1-8-7-5-8-4-8-7-2-1"
         width="4.486012"
         height="5.0364509"
         x="118.86476"
         y="32.057991"
         transform="matrix(0.95105652,0.30901699,0,1,0,0)" /><rect
         style="fill:#FE7A2B;fill-opacity:1;stroke:#000000;stroke-width:0.307622;stroke-linejoin:round;stroke-dasharray:none;stroke-opacity:1"
         id="rect1-3-2-7-2-9-9-1-1-8-7-5-8-4-8-7-2-1-2"
         width="4.486012"
         height="5.0364509"
         x="118.86476"
         y="27.021542"
         transform="matrix(0.95105652,0.30901699,0,1,0,0)" /><rect
         style="fill:#FE7A2B;fill-opacity:1;stroke:#000000;stroke-width:0.307622;stroke-linejoin:round;stroke-dasharray:none;stroke-opacity:1"
         id="rect1-3-2-7-2-9-9-1-1-8-7-5-8-4-8-7-2-1-9"
         width="4.486012"
         height="5.0364509"
         x="118.86477"
         y="67.313148"
         transform="matrix(0.95105652,0.30901699,0,1,0,0)" /><path
         style="fill:#FC0300;fill-opacity:1;stroke:#000000;stroke-width:0.3;stroke-linecap:butt;stroke-linejoin:round;stroke-dasharray:none;stroke-opacity:1;paint-order:normal"
         d="m 113.04711,63.752773 4.26646,1.386255 3.8784,-1.006287 -4.26885,-1.402876 z"
         id="path17-97" /><rect
         style="fill:#FC0300;fill-opacity:1;stroke:#000000;stroke-width:0.301722;stroke-linejoin:round;stroke-dasharray:none;stroke-opacity:1"
         id="rect1-3-2-7-2-9-9-1-5-8-0-6-7-1-9"
         width="4.0033689"
         height="5.0364466"
         x="121.1684"
         y="110.56849"
         transform="matrix(0.96818613,-0.25023113,0,1,0,0)" /><rect
         style="fill:#FC0300;fill-opacity:1;stroke:#000000;stroke-width:0.301722;stroke-linejoin:round;stroke-dasharray:none;stroke-opacity:1"
         id="rect1-3-2-7-2-9-9-1-5-8-0-6-7-1-1"
         width="4.0033689"
         height="5.0364466"
         x="121.1684"
         y="105.53203"
         transform="matrix(0.96818613,-0.25023113,0,1,0,0)" /><rect
         style="fill:#FC0300;fill-opacity:1;stroke:#000000;stroke-width:0.301722;stroke-linejoin:round;stroke-dasharray:none;stroke-opacity:1"
         id="rect1-3-2-7-2-9-9-1-5-8-0-6-7-1-8"
         width="4.0033689"
         height="5.0364466"
         x="121.1684"
         y="100.49558"
         transform="matrix(0.96818613,-0.25023113,0,1,0,0)" /><rect
         style="fill:#FC0300;fill-opacity:1;stroke:#000000;stroke-width:0.301722;stroke-linejoin:round;stroke-dasharray:none;stroke-opacity:1"
         id="rect1-3-2-7-2-9-9-1-5-8-0-6-7-1-4"
         width="4.0033689"
         height="5.0364466"
         x="121.1684"
         y="95.459129"
         transform="matrix(0.96818613,-0.25023113,0,1,0,0)" /><path
         style="fill:#FC0300;fill-opacity:1;stroke:#000000;stroke-width:0.3;stroke-linecap:butt;stroke-linejoin:round;stroke-dasharray:none;stroke-opacity:1;paint-order:normal"
         d="m 124.67753,101.03455 4.26646,1.38626 3.8784,-1.00629 -4.26885,-1.40287 z"
         id="path17-97-85" /><path
         style="fill:#FC0300;fill-opacity:1;stroke:#000000;stroke-width:0.3;stroke-linecap:butt;stroke-linejoin:round;stroke-dasharray:none;stroke-opacity:1;paint-order:normal"
         d="m 128.55593,100.02826 4.26646,1.38626 3.8784,-1.00629 -4.26885,-1.402876 z"
         id="path17-97-7" /></g></g></svg>
